<?xml version="1.0" encoding="UTF-8"?>
<svg width="400px" height="400px" viewBox="0 0 400 400" version="1.1" xmlns="http://www.w3.org/2000/svg" xmlns:xlink="http://www.w3.org/1999/xlink">
    <!-- Generator: Sketch 46.2 (44496) - http://www.bohemiancoding.com/sketch -->
    <title>Artboard</title>
    <desc>Created with Sketch.</desc>
    <defs></defs>
    <g id="Page-1" stroke="none" stroke-width="1" fill="none" fill-rule="evenodd">
        <g id="Artboard">
            <g id="ICP" transform="translate(7.000000, 25.000000)">
                <g id="Group">
                    <g>
                        <path d="M341.723191,204.205098 C343.953615,204.205098 345.870317,205.322705 346.837264,207.196071 C347.421729,208.32742 348.079253,210.617598 346.579411,213.901714 C349.725211,212.628375 353.610187,209.339679 355.952346,201.117937 C358.926244,190.651821 353.782089,182.159839 349.948683,177.597804 C348.745372,182.860634 344.735767,187.04708 341.07856,190.862518 C338.530119,193.519125 336.127794,196.029161 334.945971,198.557518 C332.986292,202.730223 334.331422,205.76242 335.491758,207.356384 C337.142014,205.37767 339.441198,204.205098 341.723191,204.205098 Z" id="Shape"></path>
                        <path d="M282.881273,188.911286 C280.276964,192.140437 277.496456,195.2505 274.531153,198.213991 C263.929122,208.817518 251.586587,217.144607 237.847352,222.95708 C223.639684,228.971089 208.546724,232.021607 192.993927,232.021607 C177.359476,232.021607 162.214945,228.934446 147.955707,222.870054 C136.833674,225.856446 124.976761,227.587821 112.595548,227.977152 C109.8838,228.064179 107.275194,228.155786 104.756835,228.251973 C102.917488,229.974187 98.6027579,234.385071 94.1204237,241.576232 C88.8602347,250.022411 82.3150813,264.12533 80.5573874,283.756741 C82.0400387,285.556821 85.447988,289.051634 90.8414007,291.071571 C90.9660293,290.28833 91.0777654,289.505089 91.2152867,288.717268 C92.8526494,279.313795 95.4096857,269.461446 98.8090399,259.448786 C104.597826,242.428179 110.786284,230.922321 111.048434,230.436804 C112.178687,228.352741 114.67126,227.638205 116.626641,228.838259 C118.582021,230.042893 119.252438,232.6995 118.126482,234.783562 C118.066317,234.898071 111.981,246.234455 106.437173,262.57717 C101.486407,277.170187 95.9812585,298.807795 97.4939926,319.799571 C102.083765,314.894009 106.123453,312.411455 109.55289,312.411455 C110.893722,312.411455 112.109926,312.997741 113.068278,314.110768 C115.616719,317.051357 116.635236,324.192134 116.102341,335.331562 C117.795572,336.174348 119.540373,336.934687 121.328149,337.608 C124.843537,326.770875 129.012151,321.017946 133.743743,320.514107 C135.33813,320.344634 136.799294,320.848473 138.092853,322.016464 C141.144106,324.78758 143.159653,331.406196 144.109409,341.721161 C145.325613,341.739482 146.550412,341.730321 147.788103,341.693679 C149.442656,330.650437 152.347793,324.237937 156.451944,322.630232 C161.462876,320.67442 166.499593,325.841062 171.441764,338.001911 C172.206726,337.795795 172.975985,337.580518 173.749543,337.3515 C173.147887,332.08867 172.215321,321.929437 172.288379,310.180821 C172.438793,287.104982 176.319471,269.823295 183.822976,258.816696 C185.146619,256.870045 187.703655,256.444071 189.530109,257.859402 C191.356564,259.270152 191.760533,261.995464 190.43689,263.942116 C187.256711,268.600339 185.030585,274.458616 183.496363,280.848214 C188.962834,284.498759 196.247164,286.482054 204.322242,286.482054 C212.582114,286.482054 220.678679,284.397991 227.447305,280.573393 C225.921678,274.289143 223.71704,268.527054 220.584134,263.937536 C219.251896,261.990884 219.655865,259.265571 221.482319,257.854821 C223.308774,256.439491 225.86581,256.865464 227.189453,258.812116 C234.701552,269.818714 238.582231,287.100402 238.72405,310.176241 C238.797108,321.924857 237.864542,332.079509 237.262886,337.34692 C238.036443,337.571357 238.805703,337.786634 239.570665,337.99733 C244.512836,325.836482 249.553851,320.669839 254.560485,322.625652 C258.664636,324.233357 261.569773,330.645857 263.224325,341.689098 C264.462017,341.725741 265.691113,341.734902 266.907317,341.71658 C267.848479,331.406196 269.864025,324.783 272.919576,322.011884 C274.208838,320.843893 275.670001,320.340054 277.268686,320.509527 C282.000278,321.013366 286.173189,326.766295 289.688577,337.60342 C291.476353,336.930107 293.216857,336.165187 294.914385,335.326982 C294.385788,324.187554 295.400008,317.051357 297.948449,314.110768 C298.9068,313.002321 300.127302,312.411455 301.472432,312.411455 C304.897571,312.411455 308.941556,314.898589 313.531329,319.808732 C315.039765,298.757411 309.504534,277.051098 304.527982,262.416857 C298.984156,246.106205 292.95041,234.902652 292.890244,234.788143 C291.768586,232.70408 292.434705,230.042893 294.390086,228.838259 C296.345466,227.633625 298.83804,228.352741 299.968293,230.436804 C300.230442,230.917741 306.4189,242.423598 312.207686,259.448786 C315.615636,269.456866 318.164077,279.309214 319.80144,288.717268 C319.947556,289.564634 320.072185,290.398259 320.201111,291.241045 C325.783615,289.285232 329.333383,285.717134 330.889093,283.843768 C327.176018,255.899009 314.459597,231.728464 304.330296,216.242277 C294.561987,201.291991 285.287896,191.389259 282.881273,188.911286 Z M143.649572,292.747982 C139.283272,294.529741 135.492841,295.207634 132.261091,295.207634 C127.82603,295.207634 124.452461,293.934295 122.063029,292.518964 C117.533422,289.834875 115.530768,286.092723 115.449115,285.932411 C115.015063,285.117107 115.285808,284.095687 116.05077,283.637652 C116.807137,283.184196 117.769786,283.468179 118.19954,284.274321 C118.233921,284.333866 119.952937,287.46225 123.743367,289.656241 C128.85744,292.619732 135.170526,292.59683 142.506427,289.596696 C143.322959,289.266911 144.238335,289.697464 144.547758,290.567732 C144.874371,291.438 144.461807,292.418196 143.649572,292.747982 Z M123.347993,279.240509 C123.618738,279.080196 130.155297,275.415911 137.465412,281.411598 C138.157316,281.979562 138.281945,283.033045 137.74905,283.775062 C137.439627,284.205616 136.971195,284.430054 136.498466,284.430054 C136.15896,284.430054 135.823752,284.315545 135.531519,284.081946 C129.837279,279.409982 124.903703,282.176518 124.85643,282.204 C124.08717,282.648295 123.133116,282.345991 122.711957,281.526107 C122.295096,280.710804 122.578734,279.684804 123.347993,279.240509 Z M145.652226,278.329018 C145.359993,278.576357 145.011892,278.700027 144.663792,278.700027 C144.203955,278.700027 143.735523,278.48475 143.4261,278.067937 C139.61848,272.992902 134.594656,270.812652 128.509339,271.595893 C123.812128,272.19592 120.185004,274.408232 120.150624,274.426554 C119.398554,274.88917 118.42731,274.618929 117.993258,273.812786 C117.554909,273.011223 117.804167,271.980643 118.560534,271.508866 C118.72384,271.403518 122.699065,268.966768 128.015122,268.256812 C135.217799,267.299518 141.397661,269.960705 145.892888,275.956393 C146.442973,276.68925 146.331237,277.751893 145.652226,278.329018 Z M294.970254,283.633071 C295.735216,284.091107 296.005961,285.112527 295.580504,285.92783 C295.494553,286.088143 293.4919,289.830295 288.962293,292.514384 C286.577158,293.929714 283.199291,295.203054 278.76423,295.203054 C275.53248,295.203054 271.750645,294.534321 267.375749,292.743402 C266.563514,292.413616 266.159545,291.43342 266.468968,290.567732 C266.778391,289.697464 267.693767,289.26233 268.5103,289.596696 C275.919259,292.628893 282.283915,292.615152 287.415178,289.573795 C291.175526,287.347741 292.795698,284.310964 292.817186,284.278902 C293.24694,283.468179 294.205291,283.175036 294.970254,283.633071 Z M273.555612,281.411598 C280.870025,275.415911 287.402286,279.084777 287.673031,279.240509 C288.44229,279.684804 288.725928,280.706223 288.309066,281.526107 C287.896503,282.341411 286.942449,282.643714 286.173189,282.20858 C285.949717,282.08033 281.102092,279.478687 275.489505,284.081946 C275.197272,284.315545 274.862064,284.430054 274.522558,284.430054 C274.049829,284.430054 273.581397,284.201036 273.271974,283.775062 C272.739079,283.033045 272.868005,281.974982 273.555612,281.411598 Z M292.464788,271.513446 C293.221155,271.980643 293.479007,273.015804 293.040658,273.821946 C292.602309,274.623509 291.626767,274.89375 290.878995,274.431134 C290.844615,274.408232 287.221789,272.19592 282.52028,271.600473 C276.434963,270.817232 271.411139,272.997482 267.603519,278.072518 C267.294096,278.48933 266.834259,278.704607 266.365827,278.704607 C266.022024,278.704607 265.669626,278.580937 265.377393,278.333598 C264.694084,277.751893 264.586646,276.68925 265.132433,275.965554 C269.62766,269.969866 275.816118,267.304098 283.0102,268.265973 C288.330554,268.971348 292.301481,271.408098 292.464788,271.513446 Z" id="Shape"></path>
                        <path d="M289.589733,183.355312 C289.482295,183.355312 289.383452,183.373634 289.284608,183.401116 C290.337505,184.504982 291.906107,186.195134 293.848596,188.434929 C298.623163,191.100696 304.76005,196.40933 311.997107,204.177616 C320.016317,212.774946 327.13734,217.135446 333.175384,217.135446 C333.643816,217.135446 334.10795,217.107964 334.56349,217.05758 C339.608802,216.471295 341.852117,212.779527 341.946663,212.623795 C342.960883,210.924482 342.939395,209.912223 342.771791,209.587018 C342.638567,209.325937 342.226003,209.156464 341.723191,209.156464 C340.696079,209.156464 339.608802,209.788554 338.809459,210.842036 C338.727806,210.947384 338.646153,211.043571 338.551607,211.130598 C338.10896,211.620696 337.30532,212.330652 336.110604,212.82075 C336.007463,212.866554 335.90862,212.907777 335.801181,212.939839 C335.242501,213.136795 334.61506,213.292527 333.897371,213.352071 C333.673899,213.370393 333.441832,213.379554 333.205467,213.379554 C329.711567,213.379554 323.639143,211.322973 314.511168,201.53017 C305.340218,191.696143 297.204974,185.62717 290.316018,183.488143 C290.040975,183.396536 289.800313,183.355312 289.589733,183.355312 Z" id="Shape"></path>
                        <path d="M136.047224,324.586045 C135.419783,324.01808 134.788045,323.789062 134.066058,323.866929 C130.782738,324.215036 127.310325,329.537411 124.336428,338.647741 C129.523558,340.292089 135.067385,341.276866 140.912039,341.602071 C140.056829,332.757402 138.329218,326.651786 136.047224,324.586045 Z" id="Shape"></path>
                        <path d="M276.963561,323.866929 C276.232979,323.789062 275.605538,324.01808 274.978097,324.586045 C272.696104,326.656366 270.977088,332.757402 270.113282,341.606652 C275.957937,341.281446 281.501763,340.29667 286.688894,338.652321 C283.714996,329.537411 280.242584,324.215036 276.963561,323.866929 Z" id="Shape"></path>
                        <path d="M253.4861,325.795259 C250.529392,324.636429 246.601441,329.445804 242.712167,338.803473 C248.672855,340.250866 254.448749,341.162357 260.005468,341.533366 C258.578685,332.537545 256.266608,326.880804 253.4861,325.795259 Z" id="Shape"></path>
                        <path d="M157.543519,325.795259 C154.758713,326.880804 152.442339,332.537545 151.019853,341.533366 C156.576573,341.162357 162.356764,340.246286 168.317452,338.803473 C164.423881,329.445804 160.495929,324.636429 157.543519,325.795259 Z" id="Shape"></path>
                        <path d="M110.747606,316.396366 C110.279174,315.851304 109.862313,315.782598 109.557187,315.782598 C106.982961,315.782598 103.454681,318.146062 99.4407782,322.501982 C101.924756,325.41967 106.359818,329.821393 113.008112,333.659732 C113.321832,324.645589 112.535383,318.457527 110.747606,316.396366 Z" id="Shape"></path>
                        <path d="M192.293428,201.122518 C193.37211,201.27825 194.463685,201.369857 195.568153,201.369857 C206.187374,201.369857 215.328242,193.922196 219.337847,183.295768 C216.883952,182.379696 214.30113,181.656 211.606572,181.124679 C206.251838,188.508214 199.788337,195.213857 192.293428,201.122518 Z" id="Shape"></path>
                        <path d="M220.902151,177.68483 C221.293228,175.609929 221.503807,173.457161 221.503807,171.249429 C221.503807,169.192848 221.314715,167.150009 220.962317,165.148393 C219.247599,168.867643 217.296515,172.458643 215.117663,175.921393 C217.103126,176.411491 219.032722,177.002357 220.902151,177.68483 Z" id="Shape"></path>
                        <path d="M301.476729,315.782598 C301.167306,315.782598 300.754742,315.851304 300.282013,316.396366 C298.494236,318.457527 297.703489,324.645589 298.021507,333.664312 C304.661206,329.825973 309.096268,325.42425 311.588841,322.506562 C307.574938,318.146062 304.046658,315.782598 301.476729,315.782598 Z" id="Shape"></path>
                        <path d="M347.090819,93.6032143 C340.971122,82.2439286 334.047785,69.373125 316.711508,49.6638482 C297.888283,28.2598393 277.668357,20.8992054 264.023668,18.4945179 C259.93241,17.7754018 256.19355,17.4410357 252.923122,17.3311071 C266.915912,25.8734732 279.082248,37.4113929 288.352042,50.9967321 C289.675684,52.9433839 289.271715,55.6686964 287.445261,57.0794464 C285.618806,58.4947768 283.06177,58.0688036 281.738128,56.1221518 C261.711591,26.7620625 228.534583,9.23303571 192.993927,9.23303571 C178.107248,9.23303571 163.719084,12.2606518 150.547124,17.9082321 C150.284974,18.0593839 150.009932,18.1830536 149.721996,18.2700804 C130.567861,26.6750357 114.035224,40.6542857 102.375998,58.9802946 C101.576656,60.2215714 100.291691,60.8903036 98.9895365,60.8903036 C98.1987892,60.8903036 97.3994467,60.6429643 96.6989477,60.139125 C94.8338154,58.7879196 94.3481933,56.0809286 95.6116701,54.0884732 C105.096341,39.1794107 117.976068,26.5605268 133.008863,17.36775 C129.837279,17.5051607 126.261725,17.8532679 122.389642,18.5540625 C102.694016,22.1267411 85.0912922,32.5882768 70.0713898,49.6592679 C52.739411,69.3685446 45.8117765,82.2393482 39.6963771,93.5986339 C32.8933712,106.231259 26.9713611,117.224116 9.34714952,132.719464 C11.6850113,136.699795 16.8463568,144.129134 25.7422646,150.706527 C41.8709323,162.624616 62.5506948,166.687393 87.2744425,162.812411 C86.1312968,160.201607 85.0783995,157.545 84.1243457,154.84717 C79.7623425,142.484786 77.5577045,129.499473 77.5577045,116.266821 C77.5577045,113.862134 79.384159,111.915482 81.6403675,111.915482 C83.9008736,111.915482 85.7230305,113.866714 85.7230305,116.266821 C85.7230305,132.998866 89.5005682,149.071339 96.7634108,163.678098 C96.9310149,163.934598 97.0728337,164.20942 97.1845697,164.507143 C99.9693757,169.98525 103.244101,175.24808 107.000151,180.263571 C134.487217,173.507545 147.659177,158.328241 160.839732,134.643214 C173.590534,111.718527 178.824937,102.960884 179.044112,102.603616 C180.260316,100.579098 182.791567,99.9836518 184.691079,101.275312 C186.590592,102.571554 187.15357,105.264804 185.933068,107.293902 C185.8772,107.380929 180.531061,116.321786 167.86621,139.08158 C159.683694,153.789107 152.180189,163.728482 143.516349,171.318134 C133.313989,180.254411 121.474266,185.989018 106.256677,189.35558 C101.447729,190.413643 96.8235764,191.389259 92.3498372,192.328232 C76.2856327,195.699375 62.2842473,198.639964 53.5774313,203.192839 C52.907015,206.632687 51.8455227,214.913973 54.9913219,222.961661 C61.7255671,222.155518 80.0588728,220.282152 112.350588,219.265312 C124.521222,218.880562 136.021439,217.162929 146.670743,214.249821 C147.001654,214.10783 147.349754,214.011643 147.70645,213.965839 C186.302657,203.07833 213.501788,176.384009 220.236033,140.501491 C220.674382,138.147187 222.831747,136.612768 225.04498,137.084545 C227.253916,137.556321 228.697889,139.85108 228.250945,142.209964 C227.305486,147.239196 225.994736,152.112696 224.335886,156.825884 C226.067795,161.351277 226.987468,166.275161 226.987468,171.254009 C226.987468,175.179375 226.428788,178.95817 225.405973,182.498786 C225.384486,182.562911 225.375891,182.627036 225.350105,182.691161 C225.350105,182.695741 225.345808,182.700321 225.34151,182.704902 C221.151409,196.936071 209.389042,207.214393 195.563856,207.214393 C192.349296,207.214393 189.212091,206.66933 186.195218,205.592946 C178.584275,210.787071 170.234155,215.120089 161.278081,218.555357 C171.489036,221.711223 182.112555,223.314348 192.993927,223.314348 C252.145267,223.314348 300.264823,175.293884 300.264823,116.271402 C300.264823,113.866714 302.095575,111.920062 304.347486,111.920062 C306.603694,111.920062 308.438744,113.871295 308.438744,116.271402 C308.438744,131.931643 305.374598,147.124687 299.323662,161.419982 C299.143165,161.845955 298.954073,162.267348 298.764981,162.693321 C323.733689,166.705714 345.315935,162.505527 361.401627,150.431705 C370.142823,143.868054 375.153755,136.64025 377.440046,132.728625 C359.811537,117.233277 353.893825,106.235839 347.090819,93.6032143 Z M169.696962,116.770661 C169.318779,117.471455 168.480758,117.709634 167.823235,117.311143 C161.858249,113.656018 155.644006,112.565893 149.335218,114.059089 C144.586436,115.181277 141.565265,117.434812 141.53948,117.457714 C141.29452,117.640929 141.019478,117.727955 140.740138,117.727955 C140.314681,117.727955 139.889225,117.512679 139.622777,117.109607 C139.184428,116.450036 139.330545,115.543125 139.940795,115.075929 C140.082614,114.975161 143.361637,112.510929 148.617529,111.233009 C153.452261,110.065018 160.942873,109.726071 169.185555,114.773625 C169.843079,115.181277 170.075146,116.074446 169.696962,116.770661 Z M158.024844,106.927473 C150.994068,106.927473 145.291233,100.583679 145.291233,92.7650089 C145.291233,84.9463393 150.989771,78.6025446 158.024844,78.6025446 C165.064214,78.6025446 170.762752,84.9463393 170.762752,92.7650089 C170.762752,100.583679 165.064214,106.927473 158.024844,106.927473 Z M225.509114,78.6025446 C232.53989,78.6025446 238.247023,84.9463393 238.247023,92.7650089 C238.247023,100.583679 232.53989,106.927473 225.509114,106.927473 C218.478339,106.927473 212.775503,100.583679 212.775503,92.7650089 C212.775503,84.9463393 218.474041,78.6025446 225.509114,78.6025446 Z M241.324062,117.118768 C241.053317,117.517259 240.632158,117.732536 240.206701,117.732536 C239.927361,117.732536 239.652319,117.645509 239.407359,117.462295 C239.355788,117.416491 236.33032,115.181277 231.611621,114.06367 C225.302832,112.570473 219.079995,113.660598 213.123604,117.315723 C212.46608,117.714214 211.62806,117.476036 211.249877,116.775241 C210.871693,116.074446 211.099463,115.181277 211.756986,114.778205 C219.999668,109.735232 227.49028,110.074179 232.325013,111.237589 C237.572309,112.510929 240.859927,114.979741 241.001746,115.080509 C241.620592,115.547705 241.762411,116.463777 241.324062,117.118768 Z" id="Shape"></path>
                        <ellipse id="Oval" fill="#000000" cx="158.024844" cy="92.7650089" rx="12.7379086" ry="14.1624643"></ellipse>
                        <ellipse id="Oval" fill="#000000" cx="225.509114" cy="92.7650089" rx="12.7379086" ry="14.1624643"></ellipse>
                        <path d="M169.189853,114.773625 C160.947171,109.730652 153.456559,110.069598 148.621826,111.233009 C143.365935,112.506348 140.086912,114.975161 139.945093,115.075929 C139.334842,115.543125 139.188726,116.454616 139.627075,117.109607 C139.889225,117.508098 140.318979,117.727955 140.744435,117.727955 C141.023775,117.727955 141.298818,117.640929 141.543778,117.457714 C141.569563,117.434812 144.595031,115.185857 149.339515,114.059089 C155.648304,112.565893 161.862547,113.656018 167.827532,117.311143 C168.485056,117.709634 169.323076,117.471455 169.70126,116.770661 C170.075146,116.074446 169.843079,115.181277 169.189853,114.773625 Z" id="Shape" fill="#000000"></path>
                        <path d="M241.006044,115.080509 C240.864225,114.979741 237.576607,112.515509 232.32931,111.237589 C227.494578,110.069598 220.003966,109.730652 211.761284,114.778205 C211.10376,115.181277 210.875991,116.074446 211.254174,116.775241 C211.632358,117.476036 212.470378,117.714214 213.127902,117.315723 C219.084292,113.660598 225.30713,112.570473 231.615919,114.06367 C236.334618,115.181277 239.360086,117.416491 239.411656,117.462295 C239.656616,117.645509 239.931659,117.732536 240.210999,117.732536 C240.636455,117.732536 241.057614,117.521839 241.328359,117.118768 C241.762411,116.463777 241.620592,115.547705 241.006044,115.080509 Z" id="Shape" fill="#000000"></path>
                        <path d="M385.235784,128.244455 C366.709089,112.53383 361.178155,102.26467 354.177462,89.2610357 C347.842888,77.4940982 340.661699,64.1515179 322.672196,43.7048036 C313.68604,33.4906071 303.629797,25.3467321 292.778508,19.4930357 C284.07599,14.80275 274.844874,11.5735982 265.360203,9.8971875 C251.285759,7.41463393 240.859927,9.095625 238.023551,9.66358929 C223.858859,3.65874107 208.486558,0.516616071 192.998224,0.516616071 C177.587246,0.516616071 162.339574,3.63125893 148.243643,9.56282143 C144.805611,8.92615179 134.749367,7.54288393 121.426993,9.89260714 C111.938025,11.5690179 102.711206,14.7981696 94.0000926,19.4884554 C83.1531016,25.3421518 73.1011555,33.4860268 64.1107018,43.7002232 C46.1254969,64.1515179 38.9357125,77.4895179 32.6097336,89.2564554 C25.6047434,102.255509 20.0781069,112.52467 1.5471144,128.239875 C0.0773557201,129.485732 -0.408266301,131.64308 0.378183521,133.466062 C0.610250681,133.997384 6.18845761,146.675812 20.6711674,157.54958 C29.1158336,163.884214 38.8755469,168.32258 49.6709674,170.741009 C56.1086823,172.188402 62.9245808,172.907518 70.0713898,172.907518 C76.8443129,172.907518 83.9180637,172.257107 91.2410719,170.965446 C93.3167837,174.840429 95.6116701,178.605482 98.125731,182.233125 C95.6331578,182.764446 93.1792624,183.282027 90.77264,183.785866 C72.3147057,187.656268 57.7331525,190.715946 48.0765801,196.432232 C47.1569065,196.981875 46.4735976,197.875045 46.1555797,198.942268 C45.9664879,199.60642 41.5056414,215.266661 49.0091462,229.763491 C49.739728,231.16508 51.1192384,232.017027 52.5932946,232.017027 C52.7780888,232.017027 52.9585855,232.003286 53.1476773,231.975804 C53.3023887,231.952902 65.9672391,230.12992 92.9386002,228.769554 C91.2539645,230.894839 89.4189149,233.418616 87.5537826,236.382107 C81.5071438,245.987116 73.9477709,262.169518 72.2803254,284.759839 C72.2072672,285.749196 72.4565245,286.743134 72.985122,287.563018 C73.2343793,287.952348 78.7352305,296.348143 89.7197427,299.820054 C88.9547806,307.5975 88.8602347,315.03142 89.4704854,322.011884 C89.530651,322.698937 89.7498255,323.37225 90.0979263,323.953955 C90.3557787,324.384509 96.6559723,334.717795 110.992566,342.362411 C119.304008,346.796196 128.642563,349.439062 138.763269,350.226884 C140.894849,350.391777 143.065107,350.474223 145.269745,350.474223 C155.944834,350.474223 167.414969,348.522991 179.456676,344.65717 C181.412056,344.029661 182.62826,341.96392 182.318837,339.811152 C182.262969,339.440143 178.515514,313.277143 181.828918,289.821134 C188.176384,293.306786 195.946337,295.184732 204.335135,295.184732 C213.063439,295.184732 221.675709,293.160214 229.144833,289.408902 C232.552782,312.965679 228.775245,339.440143 228.719377,339.811152 C228.409954,341.96392 229.626158,344.029661 231.581538,344.65717 C243.623245,348.522991 255.09338,350.474223 265.777064,350.474223 C267.973107,350.474223 270.143365,350.391777 272.274945,350.226884 C282.395651,349.439062 291.742801,346.791616 300.045648,342.362411 C314.382242,334.717795 320.682435,324.389089 320.940288,323.953955 C321.292686,323.37225 321.507563,322.698937 321.567729,322.011884 C322.173682,315.072643 322.079136,307.689107 321.331364,299.966625 C332.646787,296.590902 338.306647,287.952348 338.560202,287.558437 C339.127477,286.679009 339.372437,285.607205 339.243511,284.553723 C337.649123,271.027929 333.940346,257.208991 328.228916,243.4725 C323.686416,232.539187 317.863249,221.633357 310.92702,211.057312 C310.097594,209.793134 309.276764,208.570179 308.460232,207.379286 C308.546182,207.470893 308.627836,207.55792 308.713786,207.649527 C317.639777,217.217893 325.869566,222.068491 333.183979,222.068491 C333.820015,222.068491 334.456051,222.027268 335.070599,221.958562 C337.808132,221.642518 339.97839,220.666902 341.641538,219.553875 C341.950961,219.581357 342.316252,219.599679 342.741708,219.599679 C344.202872,219.599679 346.291476,219.3615 348.612148,218.362982 C352.398281,216.732375 357.516651,212.660437 360.396003,202.542429 C362.652211,194.622991 361.401627,186.456214 356.777474,178.935268 C353.356632,173.365554 349.299754,170.10892 349.123555,169.971509 C348.354295,169.353161 347.297101,169.321098 346.484866,169.875321 C345.672631,170.434125 345.268662,171.473866 345.470646,172.476964 C346.618089,178.152027 342.35493,182.604134 337.838215,187.321902 C335.135062,190.147982 332.333066,193.06567 330.798845,196.336045 C328.67586,200.866018 329.118506,204.832607 330.381983,207.796098 C327.756186,206.79758 323.621953,204.264643 317.803084,198.021616 C308.077751,187.587562 299.276389,181.092616 291.62247,178.719991 C291.205608,178.591741 290.797342,178.504714 290.393373,178.45433 C291.970571,175.971777 293.453222,173.425098 294.841327,170.823455 C302.422188,172.202143 309.728006,172.898357 316.720103,172.898357 C323.866913,172.898357 330.691406,172.179241 337.129121,170.731848 C347.920244,168.31342 357.679957,163.875054 366.124623,157.54042 C380.607333,146.666652 386.18554,133.988223 386.417607,133.456902 C387.191165,131.647661 386.70984,129.490312 385.235784,128.244455 Z M99.4407782,322.506562 C103.454681,318.146062 106.982961,315.787179 109.557187,315.787179 C109.862313,315.787179 110.279174,315.855884 110.747606,316.400946 C112.535383,318.462107 113.32613,324.65017 113.008112,333.668893 C106.359818,329.825973 101.924756,325.41967 99.4407782,322.506562 Z M124.336428,338.647741 C127.314623,329.537411 130.782738,324.215036 134.066058,323.866929 C134.788045,323.789062 135.419783,324.01808 136.047224,324.586045 C138.329218,326.656366 140.052531,332.757402 140.912039,341.606652 C135.067385,341.276866 129.523558,340.292089 124.336428,338.647741 Z M151.019853,341.533366 C152.446637,332.537545 154.758713,326.880804 157.543519,325.795259 C160.495929,324.636429 164.423881,329.445804 168.317452,338.798893 C162.356764,340.246286 156.576573,341.157777 151.019853,341.533366 Z M242.712167,338.798893 C246.601441,329.441223 250.529392,324.636429 253.4861,325.790679 C256.266608,326.876223 258.578685,332.532964 260.005468,341.528786 C254.448749,341.157777 248.672855,340.246286 242.712167,338.798893 Z M270.113282,341.602071 C270.97279,332.757402 272.696104,326.651786 274.978097,324.581464 C275.605538,324.0135 276.237277,323.784482 276.963561,323.862348 C280.242584,324.210455 283.710699,329.53283 286.688894,338.643161 C281.501763,340.292089 275.957937,341.276866 270.113282,341.602071 Z M298.021507,333.664312 C297.703489,324.641009 298.489939,318.457527 300.282013,316.396366 C300.754742,315.851304 301.167306,315.782598 301.476729,315.782598 C304.046658,315.782598 307.574938,318.146062 311.588841,322.506562 C309.096268,325.42883 304.661206,329.825973 298.021507,333.664312 Z M330.897688,283.834607 C329.341978,285.707973 325.79221,289.276071 320.209706,291.231884 C320.076482,290.393679 319.956151,289.555473 319.810035,288.708107 C318.172672,279.304634 315.624231,269.452286 312.216282,259.439625 C306.427495,242.419018 300.243335,230.913161 299.976888,230.427643 C298.846635,228.34358 296.354061,227.629045 294.398681,228.829098 C292.4433,230.033732 291.772884,232.690339 292.898839,234.778982 C292.959005,234.888911 298.992751,246.097045 304.536578,262.407696 C309.513129,277.046518 315.044063,298.74825 313.539924,319.799571 C308.950151,314.889429 304.906166,312.402295 301.481027,312.402295 C300.135897,312.402295 298.919693,312.98858 297.957044,314.101607 C295.408603,317.042196 294.390086,324.182973 294.922981,335.317821 C293.22975,336.160607 291.489246,336.920946 289.697172,337.594259 C286.186082,326.757134 282.01317,321.004205 277.277281,320.500366 C275.682894,320.330893 274.22173,320.834732 272.928171,322.002723 C269.876917,324.773839 267.857074,331.392455 266.915912,341.70742 C265.699709,341.725741 264.470612,341.71658 263.232921,341.679937 C261.578368,330.636696 258.673231,324.224196 254.56908,322.616491 C249.562446,320.660679 244.521431,325.827321 239.57926,337.98817 C238.814298,337.782054 238.045039,337.566777 237.271481,337.337759 C237.873137,332.074929 238.805703,321.915696 238.732645,310.16708 C238.590826,287.091241 234.710148,269.809554 227.198048,258.802955 C225.874405,256.856304 223.317369,256.43033 221.490914,257.845661 C219.66446,259.256411 219.260491,261.981723 220.592729,263.928375 C223.721338,268.513312 225.925976,274.275402 227.4559,280.564232 C220.687274,284.38883 212.590709,286.472893 204.330837,286.472893 C196.25576,286.472893 188.971429,284.485018 183.504958,280.839054 C185.034883,274.449455 187.265306,268.586598 190.445485,263.932955 C191.769128,261.986304 191.365159,259.260991 189.538705,257.850241 C187.71225,256.434911 185.155214,256.860884 183.831571,258.807536 C176.323769,269.814134 172.44309,287.095821 172.296974,310.171661 C172.223916,321.920277 173.156482,332.074929 173.758138,337.342339 C172.98458,337.566777 172.215321,337.782054 171.450359,337.99275 C166.508188,325.831902 161.475768,320.660679 156.460539,322.621071 C152.356388,324.228777 149.451251,330.641277 147.796698,341.684518 C146.559007,341.721161 145.334208,341.730321 144.118004,341.712 C143.172545,331.401616 141.156999,324.77842 138.101448,322.007304 C136.807889,320.839312 135.351023,320.335473 133.752338,320.504946 C129.020746,321.008786 124.852132,326.761714 121.336745,337.598839 C119.548968,336.925527 117.804167,336.160607 116.110936,335.322402 C116.639533,324.182973 115.625314,317.046777 113.076873,314.101607 C112.118521,312.993161 110.89802,312.402295 109.561485,312.402295 C106.136346,312.402295 102.09236,314.884848 97.5025877,319.790411 C95.9898536,298.798634 101.495002,277.161027 106.445768,262.568009 C111.989595,246.225295 118.074912,234.888911 118.135077,234.774402 C119.256735,232.690339 118.586319,230.033732 116.635236,228.829098 C114.679855,227.624464 112.187282,228.34358 111.057029,230.427643 C110.794879,230.90858 104.606421,242.414437 98.8176349,259.439625 C95.4182808,269.447705 92.8612445,279.300054 91.2238817,288.708107 C91.0863605,289.500509 90.9746244,290.27917 90.8499958,291.062411 C85.4565831,289.042473 82.0529314,285.547661 80.5659825,283.74758 C82.3236764,264.11617 88.8688298,250.01325 94.1290188,241.567071 C98.611353,234.375911 102.926083,229.965027 104.76543,228.242812 C107.283789,228.146625 109.888098,228.055018 112.604143,227.967991 C124.985356,227.578661 136.842269,225.847286 147.964302,222.860893 C162.22354,228.925286 177.368071,232.012446 193.002522,232.012446 C208.555319,232.012446 223.64828,228.961929 237.855947,222.94792 C251.595182,217.135446 263.937717,208.808357 274.539748,198.20483 C277.505051,195.241339 280.285559,192.131277 282.889869,188.902125 C285.296491,191.384679 294.57488,201.287411 304.347486,216.223955 C314.468193,231.719304 327.184613,255.889848 330.897688,283.834607 Z M334.941673,198.562098 C336.123497,196.033741 338.525821,193.519125 341.074263,190.867098 C344.731469,187.051661 348.741074,182.865214 349.944385,177.602384 C353.777791,182.16442 358.921946,190.656402 355.948049,201.122518 C353.605889,209.344259 349.725211,212.628375 346.575114,213.906295 C348.070658,210.617598 347.417432,208.332 346.832966,207.200652 C345.86602,205.327286 343.953615,204.209679 341.718894,204.209679 C339.4369,204.209679 337.137716,205.38225 335.483163,207.365545 C334.327125,205.767 332.981995,202.734804 334.941673,198.562098 Z M314.50687,201.521009 C323.634845,211.313812 329.707269,213.370393 333.201169,213.370393 C333.437534,213.370393 333.669601,213.361232 333.893073,213.342911 C334.61506,213.283366 335.242501,213.132214 335.796884,212.930679 C335.904322,212.898616 336.007463,212.861973 336.106306,212.811589 C337.30532,212.321491 338.104663,211.611536 338.547309,211.121437 C338.641855,211.034411 338.723508,210.938223 338.805162,210.832875 C339.604504,209.779393 340.691782,209.147304 341.718894,209.147304 C342.221706,209.147304 342.63427,209.316777 342.767493,209.577857 C342.935098,209.907643 342.956585,210.915321 341.942366,212.614634 C341.84782,212.774946 339.604504,216.462134 334.559192,217.04842 C334.10795,217.103384 333.639519,217.126286 333.171087,217.126286 C327.133043,217.126286 320.012019,212.765786 311.992809,204.168455 C304.755752,196.40017 298.618865,191.091536 293.844298,188.425768 C291.897512,186.185973 290.333208,184.495821 289.280311,183.391955 C289.379154,183.364473 289.477997,183.346152 289.585436,183.346152 C289.796015,183.346152 290.036678,183.387375 290.307423,183.469821 C297.204974,185.618009 305.33592,191.686982 314.50687,201.521009 Z M361.405924,150.431705 C345.320232,162.500946 323.737986,166.705714 298.769279,162.693321 C298.954073,162.267348 299.143165,161.845955 299.327959,161.419982 C305.378895,147.120107 308.443041,131.931643 308.443041,116.271402 C308.443041,113.866714 306.612289,111.920062 304.351783,111.920062 C302.099872,111.920062 300.26912,113.871295 300.26912,116.271402 C300.26912,175.293884 252.153862,223.314348 192.998224,223.314348 C182.116853,223.314348 171.493334,221.711223 161.282379,218.555357 C170.238452,215.12467 178.59287,210.787071 186.199516,205.592946 C189.216389,206.673911 192.353593,207.214393 195.568153,207.214393 C209.393339,207.214393 221.155706,196.936071 225.345808,182.704902 C225.345808,182.700321 225.350105,182.695741 225.354403,182.691161 C225.380188,182.627036 225.388783,182.562911 225.410271,182.498786 C226.433085,178.95817 226.991766,175.179375 226.991766,171.254009 C226.991766,166.275161 226.072092,161.355857 224.340183,156.825884 C225.999034,152.117277 227.314081,147.239196 228.255242,142.209964 C228.702187,139.85108 227.262511,137.556321 225.049278,137.084545 C222.840342,136.612768 220.682977,138.142607 220.24033,140.501491 C213.506085,176.384009 186.306954,203.07375 147.710748,213.965839 C147.354052,214.011643 147.005951,214.10783 146.67504,214.249821 C136.025736,217.162929 124.525519,218.880562 112.354886,219.265312 C80.0588728,220.286732 61.7298647,222.155518 54.9956195,222.961661 C51.8498202,214.913973 52.9113126,206.632687 53.5817288,203.192839 C62.2885449,198.639964 76.2899302,195.699375 92.3541348,192.328232 C96.8278739,191.389259 101.456325,190.413643 106.260974,189.35558 C121.474266,185.984437 133.313989,180.254411 143.520646,171.318134 C152.184487,163.728482 159.687992,153.789107 167.870508,139.08158 C180.535358,116.317205 185.885795,107.376348 185.937366,107.293902 C187.15357,105.264804 186.59489,102.571554 184.695377,101.275312 C182.795864,99.9836518 180.264613,100.574518 179.048409,102.603616 C178.833532,102.965464 173.599129,111.718527 160.84403,134.643214 C147.667772,158.328241 134.491515,173.502964 107.004449,180.263571 C103.248399,175.252661 99.9736732,169.98525 97.1888673,164.507143 C97.0771312,164.20942 96.9353124,163.934598 96.7677084,163.678098 C89.5005682,149.071339 85.7273281,132.994286 85.7273281,116.266821 C85.7273281,113.862134 83.9008736,111.915482 81.6446651,111.915482 C79.3884566,111.915482 77.5620021,113.866714 77.5620021,116.266821 C77.5620021,129.504054 79.7666401,142.484786 84.1286432,154.84717 C85.0783995,157.545 86.1312968,160.201607 87.27874,162.812411 C62.5549924,166.687393 41.8752298,162.624616 25.7465622,150.706527 C16.8463568,144.124554 11.6893088,136.695214 9.35144706,132.719464 C26.9713611,117.224116 32.8976688,106.235839 39.7006746,93.5986339 C45.8117765,82.2393482 52.7437085,69.3685446 70.0756874,49.6592679 C85.0955897,32.5882768 102.694016,22.1267411 122.393939,18.5540625 C126.266023,17.8532679 129.837279,17.5051607 133.013161,17.36775 C117.980366,26.5605268 105.104936,39.1794107 95.6159676,54.0884732 C94.3524909,56.0809286 94.8381129,58.7879196 96.7032453,60.139125 C97.4080418,60.6429643 98.2030867,60.8903036 98.9938341,60.8903036 C100.300286,60.8903036 101.585251,60.2215714 102.380296,58.9802946 C114.043819,40.6497054 130.572158,26.6750357 149.726294,18.2700804 C150.014229,18.1830536 150.289272,18.0593839 150.551422,17.9082321 C163.723382,12.2606518 178.111546,9.23303571 192.998224,9.23303571 C228.53888,9.23303571 261.711591,26.7620625 281.742425,56.1221518 C283.066068,58.0688036 285.623104,58.4947768 287.449558,57.0794464 C289.276013,55.6686964 289.679982,52.9433839 288.356339,50.9967321 C279.086546,37.4159732 266.92021,25.8780536 252.92742,17.3311071 C256.197848,17.4364554 259.936707,17.7708214 264.027965,18.4945179 C277.672655,20.8992054 297.892581,28.2598393 316.715806,49.6638482 C334.052082,69.373125 340.975419,82.2439286 347.095116,93.6032143 C353.898122,106.235839 359.815835,117.233277 377.448641,132.728625 C375.158053,136.63567 370.151418,143.868054 361.405924,150.431705 Z M220.962317,165.152973 C221.319013,167.150009 221.503807,169.197429 221.503807,171.254009 C221.503807,173.461741 221.293228,175.614509 220.902151,177.689411 C219.032722,177.002357 217.103126,176.411491 215.117663,175.925973 C217.296515,172.463223 219.247599,168.867643 220.962317,165.152973 Z M211.606572,181.120098 C214.296832,181.65142 216.883952,182.379696 219.337847,183.291187 C215.328242,193.917616 206.187374,201.365277 195.568153,201.365277 C194.463685,201.365277 193.37211,201.27825 192.293428,201.117937 C199.788337,195.213857 206.251838,188.508214 211.606572,181.120098 Z" id="Shape" fill="#000000"></path>
                        <path d="M128.015122,268.261393 C122.699065,268.971348 118.72384,271.408098 118.560534,271.513446 C117.804167,271.980643 117.550612,273.011223 117.993258,273.817366 C118.42731,274.618929 119.398554,274.89375 120.150624,274.431134 C120.185004,274.408232 123.80783,272.19592 128.509339,271.600473 C134.594656,270.812652 139.61848,272.997482 143.4261,278.072518 C143.735523,278.48933 144.203955,278.704607 144.663792,278.704607 C145.007595,278.704607 145.359993,278.580937 145.652226,278.333598 C146.335535,277.751893 146.442973,276.68925 145.897186,275.965554 C141.397661,269.965286 135.217799,267.304098 128.015122,268.261393 Z" id="Shape" fill="#000000"></path>
                        <path d="M142.515022,289.596696 C135.179121,292.59683 128.861737,292.615152 123.751962,289.656241 C119.957234,287.46225 118.242516,284.333866 118.208135,284.274321 C117.774084,283.468179 116.815732,283.184196 116.059365,283.637652 C115.294403,284.095687 115.023658,285.117107 115.45771,285.932411 C115.539363,286.092723 117.542017,289.834875 122.071624,292.518964 C124.456759,293.934295 127.834625,295.207634 132.269686,295.207634 C135.501436,295.207634 139.287569,294.534321 143.658167,292.747982 C144.470402,292.418196 144.882966,291.438 144.564948,290.572312 C144.242633,289.697464 143.331554,289.266911 142.515022,289.596696 Z" id="Shape" fill="#000000"></path>
                        <path d="M124.85643,282.204 C124.903703,282.176518 129.841576,279.409982 135.531519,284.081946 C135.823752,284.315545 136.15896,284.430054 136.498466,284.430054 C136.971195,284.430054 137.439627,284.201036 137.74905,283.775062 C138.281945,283.033045 138.153019,281.974982 137.465412,281.411598 C130.155297,275.415911 123.618738,279.084777 123.347993,279.240509 C122.578734,279.684804 122.295096,280.706223 122.711957,281.526107 C123.133116,282.345991 124.08717,282.648295 124.85643,282.204 Z" id="Shape" fill="#000000"></path>
                        <path d="M265.132433,275.960973 C264.586646,276.68467 264.694084,277.747312 265.377393,278.329018 C265.669626,278.576357 266.022024,278.700027 266.365827,278.700027 C266.834259,278.700027 267.294096,278.48475 267.603519,278.067937 C271.411139,272.992902 276.434963,270.812652 282.52028,271.595893 C287.217491,272.19592 290.844615,274.408232 290.878995,274.426554 C291.631065,274.88917 292.602309,274.618929 293.040658,273.817366 C293.479007,273.015804 293.225452,271.980643 292.464788,271.508866 C292.301481,271.403518 288.334852,268.966768 283.0102,268.256812 C275.816118,267.299518 269.62766,269.965286 265.132433,275.960973 Z" id="Shape" fill="#000000"></path>
                        <path d="M292.821484,284.278902 C292.799996,284.306384 291.179823,287.343161 287.419476,289.573795 C282.288213,292.619732 275.923556,292.628893 268.514597,289.596696 C267.698065,289.266911 266.782689,289.697464 266.473266,290.567732 C266.163843,291.438 266.567812,292.413616 267.380047,292.743402 C271.754942,294.529741 275.53248,295.203054 278.768528,295.203054 C283.203589,295.203054 286.577158,293.929714 288.96659,292.514384 C293.496197,289.830295 295.498851,286.088143 295.584802,285.92783 C296.010258,285.112527 295.739513,284.091107 294.974551,283.633071 C294.205291,283.175036 293.24694,283.468179 292.821484,284.278902 Z" id="Shape" fill="#000000"></path>
                        <path d="M274.522558,284.430054 C274.862064,284.430054 275.197272,284.315545 275.489505,284.081946 C281.102092,279.478687 285.949717,282.08033 286.173189,282.20858 C286.942449,282.643714 287.896503,282.341411 288.309066,281.526107 C288.730225,280.706223 288.446588,279.684804 287.673031,279.240509 C287.402286,279.080196 280.870025,275.415911 273.555612,281.411598 C272.863708,281.979562 272.739079,283.033045 273.271974,283.775062 C273.585694,284.205616 274.049829,284.430054 274.522558,284.430054 Z" id="Shape" fill="#000000"></path>
                    </g>
                </g>
            </g>
        </g>
    </g>
</svg>